<?xml version="1.0" encoding="UTF-8"?>
<svg xmlns="http://www.w3.org/2000/svg" style="stroke-dasharray:none; shape-rendering:auto; font-family:'Arial'; text-rendering:auto; fill-opacity:1; color-interpolation:auto; color-rendering:auto; font-size:12; fill:black; stroke:black; image-rendering:auto; stroke-miterlimit:10; stroke-linecap:square; stroke-linejoin:miter; font-style:normal; stroke-width:1; stroke-dashoffset:0; font-weight:normal; stroke-opacity:1;" contentScriptType="text/ecmascript" preserveAspectRatio="xMidYMid meet" zoomAndPan="magnify" version="1.0" contentStyleType="text/css" xml:xlink="http://www.w3.org/1999/xlink" width="1181" height="751"><rect x="50" y="50" width="1131" height="701" ry="0" rx="0" style="stroke:#000000; fill:#FFFFFF" /><rect x="80" y="516" width="1101" height="235" ry="0" rx="0" style="stroke:#000000; fill:#DCDCDC" /><g componentSequence="4"><text x="-633" y="88" transform="rotate(270)" text-anchor="middle" style="font-weight:bold;font-size:10px;stroke:none; fill:#434343"><tspan dy="14" x="-633">Financeiro</tspan></text></g><rect x="80" y="283" width="1101" height="233" ry="0" rx="0" style="stroke:#000000; fill:#FFFFFF" /><g componentSequence="3"><text x="-399" y="88" transform="rotate(270)" text-anchor="middle" style="font-weight:bold;font-size:10px;stroke:none; fill:#434343"><tspan dy="14" x="-399">Gestor do Solicitante</tspan></text></g><rect x="80" y="50" width="1101" height="233" ry="0" rx="0" style="stroke:#000000; fill:#C0C0C0" /><g componentSequence="2"><text x="-166" y="88" transform="rotate(270)" text-anchor="middle" style="font-weight:bold;font-size:10px;stroke:none; fill:#434343"><tspan dy="14" x="-166">Solicitante</tspan></text></g><g componentSequence="1"><text x="-400" y="58" transform="rotate(270)" text-anchor="middle" style="font-weight:bold;font-size:10px;stroke:none; fill:#434343"><tspan dy="14" x="-400">fluig</tspan></text></g><g sequence="4"><ellipse cx="157" cy="168" rx="17" ry="17" stroke-width="1" style="fill:url(#linearGradient66FF6696FF96B6FFB6_1195438905);" stroke="336633" /></g><g sequence="5"><rect x="230" y="403" width="106" height="76" ry="5" rx="5" style="fill:url(#linearGradientF8FBFEEDF5FCDEEDFAD4E7F8E2E5E9_1233589665);" stroke="191970" /></g><g componentSequence="5"><text x="283" y="418" text-anchor="middle" style="font-weight:bold;font-size:10px;stroke:none; fill:#333399"><tspan dy="14" x="283">Aprovação do</tspan><tspan dy="14" x="283">Gestor</tspan></text></g><g sequence="10"><polygon points=" 430 417 460 387 490 417 460 447 430 417" style="fill:url(#linearGradientFAFBFCFFFFCC_1303943241);" stroke="000000" /></g><g componentSequence="10"><text x="460" y="457" text-anchor="middle" style="font-weight:bold;font-size:10px;stroke:none; fill:#333399"><tspan dy="14" x="460">Aprova</tspan><tspan dy="14" x="460">do?</tspan><tspan dy="14" x="460">(Ges...</tspan></text></g><g sequence="12"><rect x="540" y="590" width="106" height="92" ry="5" rx="5" style="fill:url(#linearGradientF8FBFEEDF5FCDEEDFAD4E7F8E2E5E9_146415514);" stroke="191970" /></g><g componentSequence="12"><text x="593" y="605" text-anchor="middle" style="font-weight:bold;font-size:10px;stroke:none; fill:#333399"><tspan dy="14" x="593">Aprovação do</tspan><tspan dy="14" x="593">Financeiro</tspan></text></g><g sequence="14"><polygon points=" 749 604 779 574 809 604 779 634 749 604" style="fill:url(#linearGradientFAFBFCFFFFCC_1218706575);" stroke="000000" /></g><g componentSequence="14"><text x="779" y="644" text-anchor="middle" style="font-weight:bold;font-size:10px;stroke:none; fill:#333399"><tspan dy="14" x="779">Aprova</tspan><tspan dy="14" x="779">do?</tspan><tspan dy="14" x="779">(Fin...</tspan></text></g><g sequence="16"><rect x="970" y="140" width="106" height="76" ry="5" rx="5" style="fill:url(#linearGradientF8FBFEEDF5FCDEEDFAD4E7F8E2E5E9_972608039);" stroke="191970" /></g><g componentSequence="16"><text x="1023" y="155" text-anchor="middle" style="font-weight:bold;font-size:10px;stroke:none; fill:#333399"><tspan dy="14" x="1023">Acerto de</tspan><tspan dy="14" x="1023">Viagem</tspan></text></g><g sequence="26"><ellipse cx="459" cy="329" rx="17" ry="17" stroke-width="1" style="fill:url(#linearGradientFFFF66FFFF96FFFFB6_806055809);" stroke="999900" /></g><g sequence="26"><polygon points=" 445 322 460 322 460 315 475 330 460 345 460 338 445 338" style="stroke:none; fill:#999900" /></g><g sequence="29"><ellipse cx="779" cy="537" rx="17" ry="17" stroke-width="1" style="fill:url(#linearGradientFFFF66FFFF96FFFFB6_1754652885);" stroke="999900" /></g><g sequence="29"><polygon points=" 765 530 780 530 780 523 795 538 780 553 780 546 765 546" style="stroke:none; fill:#999900" /></g><g sequence="32"><ellipse cx="277" cy="168" rx="17" ry="17" stroke-width="1" style="fill:url(#linearGradientFFFF66FFFF96FFFFB6_1057308364);" stroke="999900" /></g><g sequence="32"><polygon points=" 263 161 278 161 278 154 293 169 278 184 278 177 263 177" style="stroke:#999900; fill:none" /></g><g sequence="42"><ellipse cx="597" cy="440" rx="17" ry="17" stroke-width="3" style="fill:url(#linearGradientFF6666FF9696FFB6B6_1075034849);" stroke="993333" /></g><g sequence="42"><polygon points=" 588 436 593 431 598 436 603 431 608 436 603 441 608 446 603 451 598 446 593 451 588 446 593 441" style="stroke:none; fill:#993333" /></g><g sequence="43"><ellipse cx="779" cy="727" rx="17" ry="17" stroke-width="3" style="fill:url(#linearGradientFF6666FF9696FFB6B6_722444805);" stroke="993333" /></g><g sequence="43"><polygon points=" 770 723 775 718 780 723 785 718 790 723 785 728 790 733 785 738 780 733 775 738 770 733 775 728" style="stroke:none; fill:#993333" /></g><g sequence="45"><ellipse cx="1147" cy="177" rx="17" ry="17" stroke-width="3" style="fill:url(#linearGradientFF6666FF9696FFB6B6_1826323705);" stroke="993333" /></g><rect x="180" y="60" width="356" height="61" ry="5" rx="5" style="stroke:none; fill:#FFFFE0" /><g componentSequence="37"><text x="190" y="83" text-anchor="left" style="font-weight:bold;font-size:10px;stroke:none; fill:#000000"><tspan dy="14" x="190">Solicitante preenche formulário com as despesas</tspan><tspan dy="14" x="190">previstas na viagem.</tspan></text></g><path style="fill:none; stroke-width:1; stroke:#000000;" d="M200.0 60.0 L180.0 60.0 L180.0 121.0 L200.0 121.0" /><rect x="667" y="290" width="225" height="80" ry="5" rx="5" style="stroke:none; fill:#FFFFE0" /><g componentSequence="39"><text x="677" y="313" text-anchor="left" style="font-weight:bold;font-size:10px;stroke:none; fill:#000000"><tspan dy="14" x="677">Solicitação retorna para</tspan><tspan dy="14" x="677">solicitante caso um ajuste seja</tspan><tspan dy="14" x="677">necessário.</tspan></text></g><path style="fill:none; stroke-width:1; stroke:#000000;" d="M687.0 290.0 L667.0 290.0 L667.0 370.0 L687.0 370.0" /><rect x="874" y="60" width="297" height="55" ry="5" rx="5" style="stroke:none; fill:#FFFFE0" /><g componentSequence="46"><text x="884" y="73" text-anchor="left" style="font-weight:bold;font-size:10px;stroke:none; fill:#000000"><tspan dy="14" x="884">Solicitante informa as despesas efetivas.</tspan></text></g><path style="fill:none; stroke-width:1; stroke:#000000;" d="M894.0 60.0 L874.0 60.0 L874.0 115.0 L894.0 115.0" /><rect x="171" y="292" width="224" height="61" ry="5" rx="5" style="stroke:none; fill:#FFFFE0" /><g componentSequence="48"><text x="181" y="315" text-anchor="left" style="font-weight:bold;font-size:10px;stroke:none; fill:#000000"><tspan dy="14" x="181">Aprovação do gestor do centro</tspan><tspan dy="14" x="181">de custo do solicitante.</tspan></text></g><path style="fill:none; stroke-width:1; stroke:#000000;" d="M191.0 292.0 L171.0 292.0 L171.0 353.0 L191.0 353.0" /><g componentSequence="6"><text x="167" y="350" style="font-size:10px;font-weight:none;stroke:none; fill:#333399" text-anchor="left" /></g><g componentSequence="11"><text x="393" y="441" style="font-size:10px;font-weight:none;stroke:none; fill:#333399" text-anchor="left" /></g><g componentSequence="13"><text x="470" y="605" style="font-size:10px;font-weight:none;stroke:none; fill:#333399" text-anchor="left"><tspan dy="14" x="470">Aprovar</tspan></text></g><g componentSequence="15"><text x="707" y="636" style="font-size:10px;font-weight:none;stroke:none; fill:#333399" text-anchor="left" /></g><g componentSequence="17"><text x="916" y="423" style="font-size:10px;font-weight:none;stroke:none; fill:#333399" text-anchor="left"><tspan dy="14" x="916">Aprovar</tspan></text></g><g componentSequence="19"><text x="1113" y="177" style="font-size:10px;font-weight:none;stroke:none; fill:#333399" text-anchor="left" /></g><g componentSequence="21"><text x="520" y="439" style="font-size:10px;font-weight:none;stroke:none; fill:#333399" text-anchor="left"><tspan dy="14" x="520">Reprovar</tspan></text></g><g componentSequence="23"><text x="790" y="690" style="font-size:10px;font-weight:none;stroke:none; fill:#333399" text-anchor="left"><tspan dy="14" x="790">Reprovar</tspan></text></g><g componentSequence="25"><text x="469" y="367" style="font-size:10px;font-weight:none;stroke:none; fill:#333399" text-anchor="left"><tspan dy="14" x="469">Ajustar</tspan></text></g><g componentSequence="28"><text x="789" y="564" style="font-size:10px;font-weight:none;stroke:none; fill:#333399" text-anchor="left"><tspan dy="14" x="789">Ajustar</tspan></text></g><g componentSequence="36"><text x="227" y="168" style="font-size:10px;font-weight:none;stroke:none; fill:#333399" text-anchor="left" /></g><g componentSequence="38"><text x="167" y="108" style="font-size:10px;font-weight:none;stroke:none; fill:#333399" text-anchor="left" /></g><g componentSequence="40"><text x="582" y="329" style="font-size:10px;font-weight:none;stroke:none; fill:#333399" text-anchor="left" /></g><g componentSequence="41"><text x="789" y="445" style="font-size:10px;font-weight:none;stroke:none; fill:#333399" text-anchor="left" /></g><g componentSequence="47"><text x="1032" y="127" style="font-size:10px;font-weight:none;stroke:none; fill:#333399" text-anchor="left" /></g><g componentSequence="49"><text x="293" y="378" style="font-size:10px;font-weight:none;stroke:none; fill:#333399" text-anchor="left" /></g><path style="fill:none; stroke:#000000;stroke-width:1" d="M157.0 186.0 L157.0 441.0 L229.0 441.0" /><polygon style="fill:#000000; stroke:#000000;" points=" 219 436 229 441 219 446 221 441" /><path style="fill:none; stroke:#000000;stroke-width:1" d="M259.0 168.0 L175.0 168.0" /><polygon style="fill:#000000; stroke:#000000;" points=" 185 173 175 168 185 163 183 168" /><path style="fill:none; stroke:#000000;stroke-dasharray:2" d="M179.0 88.0 L157.0 88.0 L157.0 150.0" /><path style="fill:none; stroke:#000000;stroke-width:1" d="M336.0 441.0 L429.0 441.0" /><polygon style="fill:#000000; stroke:#000000;" points=" 419 436 429 441 419 446 421 441" /><path style="fill:none; stroke:#000000;stroke-dasharray:2" d="M283.0 353.0 L283.0 402.0" /><path style="fill:none; stroke:#000000;stroke-width:1" d="M460.0 495.0 L460.0 636.0 L539.0 636.0" /><polygon style="fill:#000000; stroke:#000000;" points=" 529 631 539 636 529 641 531 636" /><path style="fill:none; stroke:#000000;stroke-width:1" d="M490.0 440.0 L580.0 440.0" /><polygon style="fill:#000000; stroke:#000000;" points=" 570 435 580 440 570 445 572 440" /><path style="fill:none; stroke:#000000;stroke-width:1" d="M459.0 386.0 L459.0 346.0" /><polygon style="fill:#000000; stroke:#000000;" points=" 454 356 459 346 464 356 459 354" /><path style="fill:none; stroke:#000000;stroke-width:1" d="M646.0 636.0 L748.0 636.0" /><polygon style="fill:#000000; stroke:#000000;" points=" 738 631 748 636 738 641 740 636" /><path style="fill:none; stroke:#000000;stroke-width:1" d="M809.0 635.0 L906.0 635.0 L906.0 399.0 L906.0 177.0 L969.0 177.0" /><polygon style="fill:#000000; stroke:#000000;" points=" 959 172 969 177 959 182 961 177" /><path style="fill:none; stroke:#000000;stroke-width:1" d="M779.0 698.0 L779.0 709.0" /><polygon style="fill:#000000; stroke:#000000;" points=" 784 699 779 709 774 699 779 701" /><path style="fill:none; stroke:#000000;stroke-width:1" d="M779.0 573.0 L779.0 555.0" /><polygon style="fill:#000000; stroke:#000000;" points=" 774 565 779 555 784 565 779 563" /><path style="fill:none; stroke:#000000;stroke-width:1" d="M1076.0 177.0 L1130.0 177.0" /><polygon style="fill:#000000; stroke:#000000;" points=" 1120 172 1130 177 1120 182 1122 177" /><path style="fill:none; stroke:#000000;stroke-dasharray:2" d="M1022.0 115.0 L1022.0 139.0" /><path style="fill:none; stroke:#000000;stroke-dasharray:2" d="M666.0 329.0 L476.0 329.0" /><path style="fill:none; stroke:#000000;stroke-dasharray:2" d="M779.0 370.0 L779.0 519.0" /><defs><linearGradient xmlns:xlink="http://www.w3.org/1999/xlink" xlink:href="#linearGradient66FF6696FF96B6FFB6" id="linearGradient66FF6696FF96B6FFB6_1195438905" x1="0" y1="151.0" x2="0" y2="186.0" gradientUnits="userSpaceOnUse" xlink:type="simple" xlink:actuate="onLoad" xlink:show="other" /><linearGradient id="linearGradient66FF6696FF96B6FFB6"><stop style="stop-color:#66FF66;stop-opacity:1;" offset="0.0" id="stop66FF66" /><stop style="stop-color:#96FF96;stop-opacity:1;" offset="0.5" id="stop96FF96" /><stop style="stop-color:#B6FFB6;stop-opacity:1;" offset="1.0" id="stopB6FFB6" /></linearGradient><linearGradient xmlns:xlink="http://www.w3.org/1999/xlink" xlink:href="#linearGradientF8FBFEEDF5FCDEEDFAD4E7F8E2E5E9" id="linearGradientF8FBFEEDF5FCDEEDFAD4E7F8E2E5E9_1233589665" x1="0" y1="403.0" x2="0" y2="509.0" gradientUnits="userSpaceOnUse" xlink:type="simple" xlink:actuate="onLoad" xlink:show="other" /><linearGradient id="linearGradientF8FBFEEDF5FCDEEDFAD4E7F8E2E5E9"><stop style="stop-color:#F8FBFE;stop-opacity:1;" offset="0.0" id="stopF8FBFE" /><stop style="stop-color:#EDF5FC;stop-opacity:1;" offset="0.25" id="stopEDF5FC" /><stop style="stop-color:#DEEDFA;stop-opacity:1;" offset="0.5" id="stopDEEDFA" /><stop style="stop-color:#D4E7F8;stop-opacity:1;" offset="0.75" id="stopD4E7F8" /><stop style="stop-color:#E2E5E9;stop-opacity:1;" offset="1.0" id="stopE2E5E9" /></linearGradient><linearGradient xmlns:xlink="http://www.w3.org/1999/xlink" xlink:href="#linearGradientFAFBFCFFFFCC" id="linearGradientFAFBFCFFFFCC_1303943241" x1="0" y1="387.0" x2="0" y2="447.0" gradientUnits="userSpaceOnUse" xlink:type="simple" xlink:actuate="onLoad" xlink:show="other" /><linearGradient id="linearGradientFAFBFCFFFFCC"><stop style="stop-color:#FAFBFC;stop-opacity:1;" offset="0.0" id="stopFAFBFC" /><stop style="stop-color:#FFFFCC;stop-opacity:1;" offset="1.0" id="stopFFFFCC" /></linearGradient><linearGradient xmlns:xlink="http://www.w3.org/1999/xlink" xlink:href="#linearGradientF8FBFEEDF5FCDEEDFAD4E7F8E2E5E9" id="linearGradientF8FBFEEDF5FCDEEDFAD4E7F8E2E5E9_146415514" x1="0" y1="590.0" x2="0" y2="696.0" gradientUnits="userSpaceOnUse" xlink:type="simple" xlink:actuate="onLoad" xlink:show="other" /><linearGradient xmlns:xlink="http://www.w3.org/1999/xlink" xlink:href="#linearGradientFAFBFCFFFFCC" id="linearGradientFAFBFCFFFFCC_1218706575" x1="0" y1="574.0" x2="0" y2="634.0" gradientUnits="userSpaceOnUse" xlink:type="simple" xlink:actuate="onLoad" xlink:show="other" /><linearGradient xmlns:xlink="http://www.w3.org/1999/xlink" xlink:href="#linearGradientF8FBFEEDF5FCDEEDFAD4E7F8E2E5E9" id="linearGradientF8FBFEEDF5FCDEEDFAD4E7F8E2E5E9_972608039" x1="0" y1="140.0" x2="0" y2="246.0" gradientUnits="userSpaceOnUse" xlink:type="simple" xlink:actuate="onLoad" xlink:show="other" /><linearGradient xmlns:xlink="http://www.w3.org/1999/xlink" xlink:href="#linearGradientFFFF66FFFF96FFFFB6" id="linearGradientFFFF66FFFF96FFFFB6_806055809" x1="0" y1="312.0" x2="0" y2="347.0" gradientUnits="userSpaceOnUse" xlink:type="simple" xlink:actuate="onLoad" xlink:show="other" /><linearGradient id="linearGradientFFFF66FFFF96FFFFB6"><stop style="stop-color:#FFFF66;stop-opacity:1;" offset="0.0" id="stopFFFF66" /><stop style="stop-color:#FFFF96;stop-opacity:1;" offset="0.5" id="stopFFFF96" /><stop style="stop-color:#FFFFB6;stop-opacity:1;" offset="1.0" id="stopFFFFB6" /></linearGradient><linearGradient xmlns:xlink="http://www.w3.org/1999/xlink" xlink:href="#linearGradientFFFF66FFFF96FFFFB6" id="linearGradientFFFF66FFFF96FFFFB6_1754652885" x1="0" y1="520.0" x2="0" y2="555.0" gradientUnits="userSpaceOnUse" xlink:type="simple" xlink:actuate="onLoad" xlink:show="other" /><linearGradient xmlns:xlink="http://www.w3.org/1999/xlink" xlink:href="#linearGradientFFFF66FFFF96FFFFB6" id="linearGradientFFFF66FFFF96FFFFB6_1057308364" x1="0" y1="151.0" x2="0" y2="186.0" gradientUnits="userSpaceOnUse" xlink:type="simple" xlink:actuate="onLoad" xlink:show="other" /><linearGradient xmlns:xlink="http://www.w3.org/1999/xlink" xlink:href="#linearGradientFF6666FF9696FFB6B6" id="linearGradientFF6666FF9696FFB6B6_1075034849" x1="0" y1="423.0" x2="0" y2="458.0" gradientUnits="userSpaceOnUse" xlink:type="simple" xlink:actuate="onLoad" xlink:show="other" /><linearGradient id="linearGradientFF6666FF9696FFB6B6"><stop style="stop-color:#FF6666;stop-opacity:1;" offset="0.0" id="stopFF6666" /><stop style="stop-color:#FF9696;stop-opacity:1;" offset="0.5" id="stopFF9696" /><stop style="stop-color:#FFB6B6;stop-opacity:1;" offset="1.0" id="stopFFB6B6" /></linearGradient><linearGradient xmlns:xlink="http://www.w3.org/1999/xlink" xlink:href="#linearGradientFF6666FF9696FFB6B6" id="linearGradientFF6666FF9696FFB6B6_722444805" x1="0" y1="710.0" x2="0" y2="745.0" gradientUnits="userSpaceOnUse" xlink:type="simple" xlink:actuate="onLoad" xlink:show="other" /><linearGradient xmlns:xlink="http://www.w3.org/1999/xlink" xlink:href="#linearGradientFF6666FF9696FFB6B6" id="linearGradientFF6666FF9696FFB6B6_1826323705" x1="0" y1="160.0" x2="0" y2="195.0" gradientUnits="userSpaceOnUse" xlink:type="simple" xlink:actuate="onLoad" xlink:show="other" /></defs></svg>
