<?xml version="1.0" encoding="UTF-8"?>
<svg xmlns="http://www.w3.org/2000/svg" style="stroke-dasharray:none; shape-rendering:auto; font-family:'Arial'; text-rendering:auto; fill-opacity:1; color-interpolation:auto; color-rendering:auto; font-size:12; fill:black; stroke:black; image-rendering:auto; stroke-miterlimit:10; stroke-linecap:square; stroke-linejoin:miter; font-style:normal; stroke-width:1; stroke-dashoffset:0; font-weight:normal; stroke-opacity:1;" contentScriptType="text/ecmascript" preserveAspectRatio="xMidYMid meet" zoomAndPan="magnify" version="1.0" contentStyleType="text/css" xml:xlink="http://www.w3.org/1999/xlink" width="1181" height="751"><rect x="50" y="50" width="1131" height="701" ry="0" rx="0" style="stroke:#000000; fill:#FFFFFF" /><rect x="80" y="516" width="1101" height="235" ry="0" rx="0" style="stroke:#000000; fill:#DCDCDC" /><g componentSequence="35"><text x="-633" y="88" transform="rotate(270)" text-anchor="middle" style="font-weight:bold;font-size:10px;stroke:none; fill:#434343"><tspan dy="14" x="-633">Financeiro</tspan></text></g><rect x="80" y="283" width="1101" height="233" ry="0" rx="0" style="stroke:#000000; fill:#FFFFFF" /><g componentSequence="34"><text x="-399" y="88" transform="rotate(270)" text-anchor="middle" style="font-weight:bold;font-size:10px;stroke:none; fill:#434343"><tspan dy="14" x="-399">Gestor do Solicitante</tspan></text></g><rect x="80" y="50" width="1101" height="233" ry="0" rx="0" style="stroke:#000000; fill:#C0C0C0" /><g componentSequence="9"><text x="-166" y="88" transform="rotate(270)" text-anchor="middle" style="font-weight:bold;font-size:10px;stroke:none; fill:#434343"><tspan dy="14" x="-166">Solicitante</tspan></text></g><g componentSequence="33"><text x="-400" y="58" transform="rotate(270)" text-anchor="middle" style="font-weight:bold;font-size:10px;stroke:none; fill:#434343"><tspan dy="14" x="-400">fluig</tspan></text></g><g sequence="4"><ellipse cx="157" cy="168" rx="17" ry="17" stroke-width="1" style="fill:url(#linearGradient66FF6696FF96B6FFB6_106824818);" stroke="336633" /></g><g sequence="5"><rect x="230" y="403" width="106" height="76" ry="5" rx="5" style="fill:url(#linearGradientF8FBFEEDF5FCDEEDFAD4E7F8E2E5E9_144308937);" stroke="191970" /></g><g componentSequence="5"><text x="283" y="418" text-anchor="middle" style="font-weight:bold;font-size:10px;stroke:none; fill:#333399"><tspan dy="14" x="283">Aprovação do</tspan><tspan dy="14" x="283">Gestor</tspan></text></g><g sequence="10"><polygon points=" 430 410 460 380 490 410 460 440 430 410" style="fill:url(#linearGradientFAFBFCFFFFCC_212233986);" stroke="000000" /></g><g componentSequence="10"><text x="460" y="450" text-anchor="middle" style="font-weight:bold;font-size:10px;stroke:none; fill:#333399"><tspan dy="14" x="460">Aprova</tspan><tspan dy="14" x="460">do?</tspan><tspan dy="14" x="460">(Ges...</tspan></text></g><g sequence="12"><rect x="540" y="590" width="106" height="92" ry="5" rx="5" style="fill:url(#linearGradientF8FBFEEDF5FCDEEDFAD4E7F8E2E5E9_1235546354);" stroke="191970" /></g><g componentSequence="12"><text x="593" y="605" text-anchor="middle" style="font-weight:bold;font-size:10px;stroke:none; fill:#333399"><tspan dy="14" x="593">Aprovação do</tspan><tspan dy="14" x="593">Financeiro</tspan></text></g><g sequence="14"><polygon points=" 750 604 780 574 810 604 780 634 750 604" style="fill:url(#linearGradientFAFBFCFFFFCC_1060044832);" stroke="000000" /></g><g componentSequence="14"><text x="780" y="644" text-anchor="middle" style="font-weight:bold;font-size:10px;stroke:none; fill:#333399"><tspan dy="14" x="780">Aprova</tspan><tspan dy="14" x="780">do?</tspan><tspan dy="14" x="780">(Fin...</tspan></text></g><g sequence="16"><rect x="970" y="140" width="106" height="76" ry="5" rx="5" style="fill:url(#linearGradientF8FBFEEDF5FCDEEDFAD4E7F8E2E5E9_2015886014);" stroke="191970" /></g><g componentSequence="16"><text x="1023" y="155" text-anchor="middle" style="font-weight:bold;font-size:10px;stroke:none; fill:#333399"><tspan dy="14" x="1023">Acerto de</tspan><tspan dy="14" x="1023">Viagem</tspan></text></g><g sequence="26"><ellipse cx="459" cy="330" rx="17" ry="17" stroke-width="1" style="fill:url(#linearGradientFFFF66FFFF96FFFFB6_1195791559);" stroke="999900" /></g><g sequence="26"><polygon points=" 445 323 460 323 460 316 475 331 460 346 460 339 445 339" style="stroke:none; fill:#999900" /></g><g sequence="29"><ellipse cx="779" cy="537" rx="17" ry="17" stroke-width="1" style="fill:url(#linearGradientFFFF66FFFF96FFFFB6_696979389);" stroke="999900" /></g><g sequence="29"><polygon points=" 765 530 780 530 780 523 795 538 780 553 780 546 765 546" style="stroke:none; fill:#999900" /></g><g sequence="32"><ellipse cx="277" cy="168" rx="17" ry="17" stroke-width="1" style="fill:url(#linearGradientFFFF66FFFF96FFFFB6_1860314284);" stroke="999900" /></g><g sequence="32"><polygon points=" 263 161 278 161 278 154 293 169 278 184 278 177 263 177" style="stroke:#999900; fill:none" /></g><rect x="190" y="60" width="284" height="61" ry="5" rx="5" style="stroke:none; fill:#FFFFE0" /><g componentSequence="37"><text x="200" y="83" text-anchor="left" style="font-weight:bold;font-size:10px;stroke:none; fill:#000000"><tspan dy="14" x="200">Solicitante preenche formulário com os</tspan><tspan dy="14" x="200">custos previstos na viagem.</tspan></text></g><path style="fill:none; stroke-width:1; stroke:#000000;" d="M210.0 60.0 L190.0 60.0 L190.0 121.0 L210.0 121.0" /><rect x="656" y="300" width="246" height="61" ry="5" rx="5" style="stroke:none; fill:#FFFFE0" /><g componentSequence="39"><text x="666" y="323" text-anchor="left" style="font-weight:bold;font-size:10px;stroke:none; fill:#000000"><tspan dy="14" x="666">Solicitação retorna para solicitante</tspan><tspan dy="14" x="666">caso um ajuste seja necessário.</tspan></text></g><path style="fill:none; stroke-width:1; stroke:#000000;" d="M676.0 300.0 L656.0 300.0 L656.0 361.0 L676.0 361.0" /><g sequence="42"><ellipse cx="597" cy="441" rx="17" ry="17" stroke-width="3" style="fill:url(#linearGradientFF6666FF9696FFB6B6_693621188);" stroke="993333" /></g><g sequence="42"><polygon points=" 588 437 593 432 598 437 603 432 608 437 603 442 608 447 603 452 598 447 593 452 588 447 593 442" style="stroke:none; fill:#993333" /></g><g sequence="43"><ellipse cx="779" cy="727" rx="17" ry="17" stroke-width="3" style="fill:url(#linearGradientFF6666FF9696FFB6B6_1547851845);" stroke="993333" /></g><g sequence="43"><polygon points=" 770 723 775 718 780 723 785 718 790 723 785 728 790 733 785 738 780 733 775 738 770 733 775 728" style="stroke:none; fill:#993333" /></g><g sequence="45"><ellipse cx="1147" cy="177" rx="17" ry="17" stroke-width="3" style="fill:url(#linearGradientFF6666FF9696FFB6B6_767906455);" stroke="993333" /></g><rect x="868" y="60" width="308" height="63" ry="5" rx="5" style="stroke:none; fill:#FFFFE0" /><g componentSequence="46"><text x="878" y="83" text-anchor="left" style="font-weight:bold;font-size:10px;stroke:none; fill:#000000"><tspan dy="14" x="878">Solicitante confirma os dados de pagamento</tspan><tspan dy="14" x="878">que foram preenchidos inicialmente.</tspan></text></g><path style="fill:none; stroke-width:1; stroke:#000000;" d="M888.0 60.0 L868.0 60.0 L868.0 123.0 L888.0 123.0" /><rect x="177" y="292" width="212" height="61" ry="5" rx="5" style="stroke:none; fill:#FFFFE0" /><g componentSequence="48"><text x="187" y="315" text-anchor="left" style="font-weight:bold;font-size:10px;stroke:none; fill:#000000"><tspan dy="14" x="187">Aprovação do gestor do</tspan><tspan dy="14" x="187">centro de custo do solicitante.</tspan></text></g><path style="fill:none; stroke-width:1; stroke:#000000;" d="M197.0 292.0 L177.0 292.0 L177.0 353.0 L197.0 353.0" /><g componentSequence="6"><text x="167" y="350" style="font-size:10px;font-weight:none;stroke:none; fill:#333399" text-anchor="left" /></g><g componentSequence="11"><text x="393" y="441" style="font-size:10px;font-weight:none;stroke:none; fill:#333399" text-anchor="left" /></g><g componentSequence="13"><text x="479" y="611" style="font-size:10px;font-weight:none;stroke:none; fill:#333399" text-anchor="left"><tspan dy="14" x="479">Sim</tspan></text></g><g componentSequence="15"><text x="708" y="636" style="font-size:10px;font-weight:none;stroke:none; fill:#333399" text-anchor="left" /></g><g componentSequence="17"><text x="860" y="609" style="font-size:10px;font-weight:none;stroke:none; fill:#333399" text-anchor="left"><tspan dy="14" x="860">Sim</tspan></text></g><g componentSequence="19"><text x="1113" y="177" style="font-size:10px;font-weight:none;stroke:none; fill:#333399" text-anchor="left" /></g><g componentSequence="21"><text x="530" y="440" style="font-size:10px;font-weight:none;stroke:none; fill:#333399" text-anchor="left"><tspan dy="14" x="530">Não</tspan></text></g><g componentSequence="23"><text x="792" y="694" style="font-size:10px;font-weight:none;stroke:none; fill:#333399" text-anchor="left"><tspan dy="14" x="792">Não</tspan></text></g><g componentSequence="25"><text x="469" y="364" style="font-size:10px;font-weight:none;stroke:none; fill:#333399" text-anchor="left"><tspan dy="14" x="469">Ajustar</tspan></text></g><g componentSequence="28"><text x="789" y="564" style="font-size:10px;font-weight:none;stroke:none; fill:#333399" text-anchor="left"><tspan dy="14" x="789">Ajustar</tspan></text></g><g componentSequence="36"><text x="227" y="168" style="font-size:10px;font-weight:none;stroke:none; fill:#333399" text-anchor="left" /></g><g componentSequence="38"><text x="167" y="103" style="font-size:10px;font-weight:none;stroke:none; fill:#333399" text-anchor="left" /></g><g componentSequence="40"><text x="576" y="330" style="font-size:10px;font-weight:none;stroke:none; fill:#333399" text-anchor="left" /></g><g componentSequence="41"><text x="789" y="440" style="font-size:10px;font-weight:none;stroke:none; fill:#333399" text-anchor="left" /></g><g componentSequence="47"><text x="1032" y="131" style="font-size:10px;font-weight:none;stroke:none; fill:#333399" text-anchor="left" /></g><g componentSequence="49"><text x="293" y="378" style="font-size:10px;font-weight:none;stroke:none; fill:#333399" text-anchor="left" /></g><path style="fill:none; stroke:#000000;stroke-width:1" d="M157.0 186.0 L157.0 441.0 L229.0 441.0" /><polygon style="fill:#000000; stroke:#000000;" points=" 219 436 229 441 219 446 221 441" /><path style="fill:none; stroke:#000000;stroke-width:1" d="M259.0 168.0 L175.0 168.0" /><polygon style="fill:#000000; stroke:#000000;" points=" 185 173 175 168 185 163 183 168" /><path style="fill:none; stroke:#000000;stroke-dasharray:2" d="M189.0 88.0 L157.0 88.0 L157.0 150.0" /><path style="fill:none; stroke:#000000;stroke-width:1" d="M336.0 441.0 L429.0 441.0" /><polygon style="fill:#000000; stroke:#000000;" points=" 419 436 429 441 419 446 421 441" /><path style="fill:none; stroke:#000000;stroke-dasharray:2" d="M283.0 353.0 L283.0 402.0" /><path style="fill:none; stroke:#000000;stroke-width:1" d="M460.0 504.0 L460.0 636.0 L539.0 636.0" /><polygon style="fill:#000000; stroke:#000000;" points=" 529 631 539 636 529 641 531 636" /><path style="fill:none; stroke:#000000;stroke-width:1" d="M490.0 441.0 L580.0 441.0" /><polygon style="fill:#000000; stroke:#000000;" points=" 570 436 580 441 570 446 572 441" /><path style="fill:none; stroke:#000000;stroke-width:1" d="M459.0 379.0 L459.0 347.0" /><polygon style="fill:#000000; stroke:#000000;" points=" 454 357 459 347 464 357 459 355" /><path style="fill:none; stroke:#000000;stroke-width:1" d="M646.0 636.0 L749.0 636.0" /><polygon style="fill:#000000; stroke:#000000;" points=" 739 631 749 636 739 641 741 636" /><path style="fill:none; stroke:#000000;stroke-width:1" d="M810.0 635.0 L906.0 635.0 L906.0 399.0 L906.0 177.0 L969.0 177.0" /><polygon style="fill:#000000; stroke:#000000;" points=" 959 172 969 177 959 182 961 177" /><path style="fill:none; stroke:#000000;stroke-width:1" d="M779.0 698.0 L779.0 710.0" /><polygon style="fill:#000000; stroke:#000000;" points=" 784 700 779 710 774 700 779 702" /><path style="fill:none; stroke:#000000;stroke-width:1" d="M779.0 573.0 L779.0 554.0" /><polygon style="fill:#000000; stroke:#000000;" points=" 774 564 779 554 784 564 779 562" /><path style="fill:none; stroke:#000000;stroke-width:1" d="M1076.0 177.0 L1130.0 177.0" /><polygon style="fill:#000000; stroke:#000000;" points=" 1120 172 1130 177 1120 182 1122 177" /><path style="fill:none; stroke:#000000;stroke-dasharray:2" d="M1022.0 123.0 L1022.0 139.0" /><path style="fill:none; stroke:#000000;stroke-dasharray:2" d="M655.0 330.0 L477.0 330.0" /><path style="fill:none; stroke:#000000;stroke-dasharray:2" d="M779.0 361.0 L779.0 519.0" /><defs><linearGradient xmlns:xlink="http://www.w3.org/1999/xlink" xlink:href="#linearGradient66FF6696FF96B6FFB6" id="linearGradient66FF6696FF96B6FFB6_106824818" x1="0" y1="151.0" x2="0" y2="186.0" gradientUnits="userSpaceOnUse" xlink:type="simple" xlink:actuate="onLoad" xlink:show="other" /><linearGradient id="linearGradient66FF6696FF96B6FFB6"><stop style="stop-color:#66FF66;stop-opacity:1;" offset="0.0" id="stop66FF66" /><stop style="stop-color:#96FF96;stop-opacity:1;" offset="0.5" id="stop96FF96" /><stop style="stop-color:#B6FFB6;stop-opacity:1;" offset="1.0" id="stopB6FFB6" /></linearGradient><linearGradient xmlns:xlink="http://www.w3.org/1999/xlink" xlink:href="#linearGradientF8FBFEEDF5FCDEEDFAD4E7F8E2E5E9" id="linearGradientF8FBFEEDF5FCDEEDFAD4E7F8E2E5E9_144308937" x1="0" y1="403.0" x2="0" y2="509.0" gradientUnits="userSpaceOnUse" xlink:type="simple" xlink:actuate="onLoad" xlink:show="other" /><linearGradient id="linearGradientF8FBFEEDF5FCDEEDFAD4E7F8E2E5E9"><stop style="stop-color:#F8FBFE;stop-opacity:1;" offset="0.0" id="stopF8FBFE" /><stop style="stop-color:#EDF5FC;stop-opacity:1;" offset="0.25" id="stopEDF5FC" /><stop style="stop-color:#DEEDFA;stop-opacity:1;" offset="0.5" id="stopDEEDFA" /><stop style="stop-color:#D4E7F8;stop-opacity:1;" offset="0.75" id="stopD4E7F8" /><stop style="stop-color:#E2E5E9;stop-opacity:1;" offset="1.0" id="stopE2E5E9" /></linearGradient><linearGradient xmlns:xlink="http://www.w3.org/1999/xlink" xlink:href="#linearGradientFAFBFCFFFFCC" id="linearGradientFAFBFCFFFFCC_212233986" x1="0" y1="380.0" x2="0" y2="440.0" gradientUnits="userSpaceOnUse" xlink:type="simple" xlink:actuate="onLoad" xlink:show="other" /><linearGradient id="linearGradientFAFBFCFFFFCC"><stop style="stop-color:#FAFBFC;stop-opacity:1;" offset="0.0" id="stopFAFBFC" /><stop style="stop-color:#FFFFCC;stop-opacity:1;" offset="1.0" id="stopFFFFCC" /></linearGradient><linearGradient xmlns:xlink="http://www.w3.org/1999/xlink" xlink:href="#linearGradientF8FBFEEDF5FCDEEDFAD4E7F8E2E5E9" id="linearGradientF8FBFEEDF5FCDEEDFAD4E7F8E2E5E9_1235546354" x1="0" y1="590.0" x2="0" y2="696.0" gradientUnits="userSpaceOnUse" xlink:type="simple" xlink:actuate="onLoad" xlink:show="other" /><linearGradient xmlns:xlink="http://www.w3.org/1999/xlink" xlink:href="#linearGradientFAFBFCFFFFCC" id="linearGradientFAFBFCFFFFCC_1060044832" x1="0" y1="574.0" x2="0" y2="634.0" gradientUnits="userSpaceOnUse" xlink:type="simple" xlink:actuate="onLoad" xlink:show="other" /><linearGradient xmlns:xlink="http://www.w3.org/1999/xlink" xlink:href="#linearGradientF8FBFEEDF5FCDEEDFAD4E7F8E2E5E9" id="linearGradientF8FBFEEDF5FCDEEDFAD4E7F8E2E5E9_2015886014" x1="0" y1="140.0" x2="0" y2="246.0" gradientUnits="userSpaceOnUse" xlink:type="simple" xlink:actuate="onLoad" xlink:show="other" /><linearGradient xmlns:xlink="http://www.w3.org/1999/xlink" xlink:href="#linearGradientFFFF66FFFF96FFFFB6" id="linearGradientFFFF66FFFF96FFFFB6_1195791559" x1="0" y1="313.0" x2="0" y2="348.0" gradientUnits="userSpaceOnUse" xlink:type="simple" xlink:actuate="onLoad" xlink:show="other" /><linearGradient id="linearGradientFFFF66FFFF96FFFFB6"><stop style="stop-color:#FFFF66;stop-opacity:1;" offset="0.0" id="stopFFFF66" /><stop style="stop-color:#FFFF96;stop-opacity:1;" offset="0.5" id="stopFFFF96" /><stop style="stop-color:#FFFFB6;stop-opacity:1;" offset="1.0" id="stopFFFFB6" /></linearGradient><linearGradient xmlns:xlink="http://www.w3.org/1999/xlink" xlink:href="#linearGradientFFFF66FFFF96FFFFB6" id="linearGradientFFFF66FFFF96FFFFB6_696979389" x1="0" y1="520.0" x2="0" y2="555.0" gradientUnits="userSpaceOnUse" xlink:type="simple" xlink:actuate="onLoad" xlink:show="other" /><linearGradient xmlns:xlink="http://www.w3.org/1999/xlink" xlink:href="#linearGradientFFFF66FFFF96FFFFB6" id="linearGradientFFFF66FFFF96FFFFB6_1860314284" x1="0" y1="151.0" x2="0" y2="186.0" gradientUnits="userSpaceOnUse" xlink:type="simple" xlink:actuate="onLoad" xlink:show="other" /><linearGradient xmlns:xlink="http://www.w3.org/1999/xlink" xlink:href="#linearGradientFF6666FF9696FFB6B6" id="linearGradientFF6666FF9696FFB6B6_693621188" x1="0" y1="424.0" x2="0" y2="459.0" gradientUnits="userSpaceOnUse" xlink:type="simple" xlink:actuate="onLoad" xlink:show="other" /><linearGradient id="linearGradientFF6666FF9696FFB6B6"><stop style="stop-color:#FF6666;stop-opacity:1;" offset="0.0" id="stopFF6666" /><stop style="stop-color:#FF9696;stop-opacity:1;" offset="0.5" id="stopFF9696" /><stop style="stop-color:#FFB6B6;stop-opacity:1;" offset="1.0" id="stopFFB6B6" /></linearGradient><linearGradient xmlns:xlink="http://www.w3.org/1999/xlink" xlink:href="#linearGradientFF6666FF9696FFB6B6" id="linearGradientFF6666FF9696FFB6B6_1547851845" x1="0" y1="710.0" x2="0" y2="745.0" gradientUnits="userSpaceOnUse" xlink:type="simple" xlink:actuate="onLoad" xlink:show="other" /><linearGradient xmlns:xlink="http://www.w3.org/1999/xlink" xlink:href="#linearGradientFF6666FF9696FFB6B6" id="linearGradientFF6666FF9696FFB6B6_767906455" x1="0" y1="160.0" x2="0" y2="195.0" gradientUnits="userSpaceOnUse" xlink:type="simple" xlink:actuate="onLoad" xlink:show="other" /></defs></svg>
